<?xml version="1.0" encoding="utf-8"?>
<!-- Generator: Adobe Illustrator 17.1.0, SVG Export Plug-In . SVG Version: 6.00 Build 0)  -->
<!DOCTYPE svg PUBLIC "-//W3C//DTD SVG 1.1//EN" "http://www.w3.org/Graphics/SVG/1.1/DTD/svg11.dtd">
<svg version="1.1" id="Calque_1" xmlns="http://www.w3.org/2000/svg" xmlns:xlink="http://www.w3.org/1999/xlink" x="0px" y="0px"
	 viewBox="0 0 376.9 78" enable-background="new 0 0 376.9 78" xml:space="preserve">
<g>
	<path fill="#A4A4A4" d="M0,14.9C0,13.6,0.6,13,1.9,13h4.6c0.7,0,1.3,0.4,1.7,1.1l1.7,4.1c0.6-0.7,1.4-1.4,2.2-2.1
		c0.9-0.7,1.9-1.4,3.1-2c1.1-0.6,2.4-1.1,3.8-1.5c1.4-0.4,2.9-0.6,4.4-0.6c2.8,0,5.2,0.5,7.3,1.5c2.1,1,4,2.6,5.8,4.6
		c0.6-0.6,1.3-1.2,2.2-2c0.9-0.7,1.9-1.4,3-2c1.1-0.6,2.4-1.1,3.9-1.5c1.4-0.4,3-0.7,4.8-0.7c3.1,0,5.8,0.6,8.1,1.7
		c2.3,1.1,4.3,2.7,5.8,4.5c1.5,1.9,2.7,4.1,3.4,6.7c0.8,2.5,1.2,5.2,1.2,8.1v18.1c0,0.5-0.2,1-0.6,1.3c-0.4,0.4-0.8,0.5-1.4,0.5
		H56.3c-0.5,0-1-0.2-1.4-0.5c-0.4-0.4-0.6-0.8-0.6-1.3V32.4c0-2-0.5-3.8-1.6-5.2c-1.1-1.5-2.8-2.2-5.1-2.2c-1.7,0-3.3,0.6-4.6,2
		c-1.4,1.3-2.1,2.9-2.1,4.8v19.4c0,0.5-0.2,1-0.5,1.3c-0.4,0.4-0.8,0.5-1.4,0.5h-9.6c-0.5,0-1-0.2-1.4-0.5c-0.4-0.4-0.5-0.8-0.5-1.3
		V32.4c0-2-0.5-3.8-1.5-5.2c-1-1.5-2.6-2.2-4.8-2.2c-2,0-3.7,0.6-5,2c-1.3,1.3-2,3-2,5v19.2c0,0.5-0.2,1-0.6,1.3
		c-0.4,0.4-0.8,0.5-1.4,0.5H1.9c-0.5,0-1-0.2-1.3-0.5C0.2,52.1,0,51.6,0,51.1V14.9z"/>
	<path fill="#A4A4A4" d="M144.8,14.9c0-1.3,0.6-1.9,1.9-1.9h4.6c0.7,0,1.3,0.4,1.7,1.1l1.7,4.1c0.6-0.7,1.4-1.4,2.2-2.1
		c0.9-0.7,1.9-1.4,3.1-2c1.1-0.6,2.4-1.1,3.8-1.5c1.4-0.4,2.9-0.6,4.4-0.6c2.8,0,5.2,0.5,7.3,1.5c2.1,1,4,2.6,5.8,4.6
		c0.6-0.6,1.3-1.2,2.2-2c0.9-0.7,1.9-1.4,3-2c1.1-0.6,2.4-1.1,3.9-1.5c1.4-0.4,3-0.7,4.8-0.7c3.1,0,5.8,0.6,8.1,1.7
		c2.3,1.1,4.3,2.7,5.8,4.5c1.5,1.9,2.7,4.1,3.5,6.7c0.8,2.5,1.2,5.2,1.2,8.1v18.1c0,0.5-0.2,1-0.6,1.3c-0.4,0.4-0.8,0.5-1.3,0.5
		h-10.6c-0.5,0-1-0.2-1.4-0.5c-0.4-0.4-0.5-0.8-0.5-1.3V32.4c0-2-0.5-3.8-1.6-5.2c-1.1-1.5-2.8-2.2-5.1-2.2c-1.7,0-3.3,0.6-4.6,2
		c-1.4,1.3-2.1,2.9-2.1,4.8v19.4c0,0.5-0.2,1-0.5,1.3c-0.4,0.4-0.8,0.5-1.3,0.5h-9.6c-0.5,0-1-0.2-1.3-0.5c-0.4-0.4-0.5-0.8-0.5-1.3
		V32.4c0-2-0.5-3.8-1.5-5.2c-1-1.5-2.6-2.2-4.8-2.2c-2,0-3.7,0.6-5,2c-1.3,1.3-2,3-2,5v19.2c0,0.5-0.2,1-0.6,1.3
		c-0.4,0.4-0.8,0.5-1.4,0.5h-10.5c-0.5,0-1-0.2-1.3-0.5c-0.4-0.4-0.6-0.8-0.6-1.3V14.9z"/>
	<path fill="#A4A4A4" d="M230.4,33c0-2.8,0.5-5.5,1.6-8c1-2.6,2.5-4.8,4.3-6.7c1.9-1.9,4.1-3.4,6.6-4.5c2.5-1.1,5.3-1.7,8.2-1.7
		c2.5,0,5,0.5,7.2,1.4c2.3,0.9,4.3,2.2,6,3.9c1.7,1.7,3.1,3.7,4.2,6c1,2.3,1.5,4.8,1.5,7.5c0,0.3,0,0.8,0,1.4c0,0.6-0.1,1-0.2,1.3
		c-0.1,0.5-0.3,1-0.6,1.2c-0.4,0.3-0.8,0.5-1.2,0.5h-24c0.1,0.7,0.3,1.4,0.6,2.2c0.3,0.8,0.8,1.5,1.4,2.1c0.6,0.7,1.4,1.2,2.3,1.7
		c0.9,0.4,2.1,0.6,3.4,0.6c1.3,0,2.5-0.2,3.8-0.8s2.3-1,3.2-1.6c1-0.8,1.8-0.8,2.5,0l5,6c0.3,0.4,0.5,0.9,0.5,1.4
		c0,0.5-0.2,1-0.7,1.5c-1.7,1.7-3.8,3.1-6.3,4.2c-2.5,1-5.3,1.5-8.5,1.5c-3,0-5.8-0.5-8.3-1.6c-2.5-1.1-4.7-2.6-6.6-4.5
		c-1.9-1.9-3.3-4.1-4.4-6.7C230.9,38.6,230.4,35.9,230.4,33z M256,27.4c-0.1-1.3-0.7-2.5-1.8-3.4c-1-0.9-2.2-1.3-3.5-1.3
		c-1.3,0-2.5,0.5-3.6,1.3c-1,0.9-1.6,2-1.8,3.4H256z"/>
	<path fill="#A4A4A4" d="M287.3,14.9c0-0.5,0.2-1,0.5-1.4c0.4-0.4,0.8-0.5,1.3-0.5h4.7c0.3,0,0.7,0.1,1,0.4c0.4,0.2,0.6,0.5,0.8,0.8
		l1.6,4c0.5-0.6,1.2-1.3,2.1-2c0.9-0.7,1.9-1.4,3-2c1.2-0.6,2.5-1.1,4-1.5c1.5-0.4,3.2-0.7,5-0.7c3.1,0,5.8,0.5,8.2,1.7
		c2.4,1.1,4.3,2.6,6,4.5c1.6,1.9,2.8,4.1,3.6,6.6c0.8,2.5,1.2,5.2,1.2,8.1v18.2c0,0.5-0.2,1-0.5,1.3c-0.4,0.4-0.8,0.5-1.3,0.5h-10.7
		c-0.5,0-1-0.2-1.4-0.5c-0.4-0.4-0.5-0.8-0.5-1.3V32.4c0-2-0.6-3.8-1.7-5.2c-1.1-1.5-2.8-2.2-5.1-2.2c-2,0-3.8,0.6-5.3,2
		c-1.5,1.3-2.3,3-2.3,5v19.2c0,0.5-0.1,0.9-0.4,1.3c-0.2,0.4-0.7,0.6-1.5,0.6h-10.5c-0.5,0-1-0.2-1.3-0.5c-0.4-0.4-0.5-0.8-0.5-1.3
		V14.9z"/>
	<path fill="#A4A4A4" d="M351.4,25.7h-2.6c-0.5,0-1-0.2-1.3-0.5c-0.3-0.4-0.5-0.8-0.5-1.4v-8.9c0-0.5,0.2-1,0.5-1.4
		c0.3-0.4,0.8-0.5,1.3-0.5h2.6V1.9c0-0.5,0.2-1,0.5-1.4c0.4-0.4,0.8-0.5,1.3-0.5H364c0.5,0,1,0.2,1.3,0.5c0.3,0.4,0.5,0.8,0.5,1.4
		V13h7.4c1.3,0,1.9,0.6,1.9,1.9v8.9c0,0.5-0.2,1-0.6,1.4c-0.4,0.4-0.8,0.5-1.3,0.5h-7.4v12.5c0,1.1,0.3,1.8,0.9,2
		c0.6,0.2,1.2,0.4,1.8,0.4c0.7,0,1.4-0.1,2.1-0.2c0.7-0.2,1.3-0.3,1.8-0.5c1.1-0.2,1.9,0.2,2.2,1.3l2.2,8.3c0.1,0.5,0.1,0.9-0.1,1.4
		c-0.2,0.5-0.6,0.8-1.2,0.9c-1.4,0.5-2.8,0.8-4.2,1.1c-1.2,0.3-2.5,0.6-3.9,0.8c-1.4,0.2-2.7,0.3-4,0.3c-3.8,0-6.8-1.2-8.9-3.5
		c-2.1-2.3-3.1-5.8-3.1-10.4V25.7z"/>
	<g>
		<circle fill="#FF8080" cx="106.3" cy="34" r="22"/>
		<path fill="#768EFF" d="M106.3,44c6.6,0,12,5.4,12,12s-5.4,12-12,12s-12-5.4-12-12S99.7,44,106.3,44 M106.3,34
			c-12.2,0-22,9.8-22,22s9.8,22,22,22s22-9.8,22-22S118.4,34,106.3,34L106.3,34z"/>
	</g>
</g>
</svg>
